# xmcd
#
# Track frame offsets:
#	150
#	14142
#	29897
#	41747
#	57407
#	72415
#	87708
#	101572
#	117458
#	130660
#	144489
#
# Disc length: 2126 seconds
#
# Revision: 0
# Processed by: cddbd v1.5.2PL0 Copyright (c) Steve Scherf et al.
# Submitted via: EasyCDDAExtractor 2011.3.0.0
#
DISCID=ad084c0b
DTITLE=Rachel Proctor - What Didn't Kill Me 
DYEAR=1900
DGENRE=
TTITLE0=What Didn't Kill Me
TTITLE1=Everybody Does
TTITLE2=What Goodbye Looks Like
TTITLE3=Wrong
TTITLE4=That's A Lie
TTITLE5=Why Wait
TTITLE6=Your Hands On Me
TTITLE7=Only Lonely Girl
TTITLE8=Don't Let it Hit Ya
TTITLE9=Don't It Make You Feel Good
TTITLE10=I'm Listening
EXTD=
EXTT0=
EXTT1=
EXTT2=
EXTT3=
EXTT4=
EXTT5=
EXTT6=
EXTT7=
EXTT8=
EXTT9=
EXTT10=
PLAYORDER=
